<?xml version="1.0" standalone="no"?>
<!DOCTYPE svg PUBLIC "-//W3C//DTD SVG 20010904//EN"
 "http://www.w3.org/TR/2001/REC-SVG-20010904/DTD/svg10.dtd">
<svg version="1.0" xmlns="http://www.w3.org/2000/svg"
 width="256.000000pt" height="256.000000pt" viewBox="0 0 256.000000 256.000000"
 preserveAspectRatio="xMidYMid meet">

<g transform="translate(0.000000,256.000000) scale(0.100000,-0.100000)"
fill="#000000" stroke="none">
<path d="M1108 2385 c-442 -69 -797 -413 -887 -860 l-18 -90 -67 -5 c-52 -4
-71 -10 -82 -24 -28 -39 -16 -74 87 -254 132 -230 141 -242 183 -242 18 0 39
6 48 13 24 18 248 411 248 434 0 11 -9 32 -21 47 -17 22 -28 26 -73 26 -29 0
-55 2 -58 6 -13 13 27 146 72 239 84 172 208 299 375 381 89 44 222 84 277 84
16 0 31 6 34 15 7 17 49 20 59 5 3 -5 15 -10 26 -10 10 0 19 5 19 10 0 16 42
12 54 -5 6 -9 42 -23 80 -32 158 -36 295 -114 409 -232 80 -83 106 -91 97 -32
-2 18 91 112 110 110 57 -5 53 19 -17 93 -242 256 -602 377 -955 323z m427
-114 c44 -12 125 -44 180 -71 122 -60 265 -170 265 -205 0 -42 -27 -36 -98 24
-181 151 -370 221 -601 221 -293 0 -557 -130 -734 -362 -79 -104 -126 -202
-173 -365 -5 -18 -43 -16 -51 2 -8 22 23 126 63 213 112 245 327 439 575 521
133 44 186 51 344 47 112 -3 170 -10 230 -25z m-1180 -856 c0 -36 -3 -40 -25
-40 -20 0 -26 6 -28 28 -4 33 14 59 37 55 11 -2 16 -15 16 -43z"/>
<path d="M1041 1956 c-34 -19 -39 -38 -40 -139 -1 -81 1 -90 25 -114 l25 -25
-64 -67 c-42 -44 -69 -81 -77 -106 -7 -25 -10 -98 -8 -195 3 -147 4 -155 23
-155 19 0 20 9 26 175 3 96 6 177 7 179 1 2 39 41 84 87 l82 84 156 0 155 0
77 -77 c42 -43 82 -91 87 -106 7 -18 11 -160 11 -385 0 -307 -2 -361 -16 -380
-15 -22 -17 -22 -313 -22 -265 0 -300 2 -312 16 -10 12 -16 57 -19 143 -5 118
-6 126 -25 126 -19 0 -20 -8 -23 -133 l-3 -133 35 -35 34 -34 312 0 312 0 34
34 34 34 0 376 c0 434 3 417 -92 513 l-62 62 27 25 c25 23 27 31 27 108 0 160
3 158 -282 158 -160 -1 -219 -4 -237 -14z"/>
<path d="M2188 1638 c-24 -19 -248 -412 -248 -435 0 -11 9 -32 21 -47 17 -22
28 -26 73 -26 29 0 55 -2 58 -6 13 -13 -27 -147 -72 -239 -121 -249 -341 -413
-613 -459 -62 -11 -72 -15 -75 -34 -3 -20 1 -22 41 -22 62 0 183 33 270 73
194 90 340 235 433 430 39 84 77 222 72 269 l-3 33 -74 5 c-41 3 -76 10 -78
15 -5 17 221 400 238 403 12 2 47 -51 128 -191 61 -107 111 -201 111 -210 0
-14 -12 -17 -74 -17 -47 0 -77 -5 -83 -12 -6 -7 -13 -38 -17 -69 -9 -85 -52
-224 -97 -313 -191 -381 -610 -614 -1020 -566 -250 29 -455 126 -630 299 -76
76 -109 92 -109 54 0 -23 106 -130 195 -196 318 -239 743 -282 1104 -112 313
149 531 428 600 770 l18 90 67 5 c52 4 71 10 82 24 28 39 16 74 -87 254 -132
230 -141 242 -183 242 -18 0 -39 -6 -48 -12z"/>
<path d="M1180 1351 c-5 -11 -10 -35 -10 -55 0 -35 0 -35 -47 -38 l-48 -3 0
-100 0 -100 48 -3 c47 -3 47 -3 47 -38 0 -67 10 -74 110 -74 100 0 110 7 110
74 0 35 0 35 48 38 l47 3 0 100 0 100 -47 3 c-48 3 -48 3 -48 38 0 67 -10 74
-110 74 -78 0 -91 -2 -100 -19z m152 -83 l3 -53 53 -3 52 -3 0 -50 0 -49 -36
0 c-58 0 -74 -14 -74 -65 l0 -45 -50 0 -50 0 0 45 c0 51 -16 65 -74 65 l-36 0
0 49 0 50 53 3 52 3 3 53 3 52 49 0 49 0 3 -52z"/>
<path d="M904 1085 c-4 -9 -2 -21 4 -27 15 -15 44 -1 40 19 -4 23 -36 29 -44
8z"/>
<path d="M587 725 c-4 -8 10 -33 31 -59 107 -129 276 -233 451 -277 78 -20 84
-20 100 -4 15 15 15 17 -3 31 -11 8 -28 14 -39 14 -38 0 -201 61 -271 102 -40
23 -108 78 -156 125 -85 84 -103 95 -113 68z"/>
<path d="M1230 391 c0 -27 19 -36 37 -18 18 18 9 37 -18 37 -12 0 -19 -7 -19
-19z"/>
</g>
</svg>
